<?xml version="1.0" encoding="UTF-8" standalone="no"?>
<svg
   xmlns:dc="http://purl.org/dc/elements/1.1/"
   xmlns:cc="http://creativecommons.org/ns#"
   xmlns:rdf="http://www.w3.org/1999/02/22-rdf-syntax-ns#"
   xmlns:svg="http://www.w3.org/2000/svg"
   xmlns="http://www.w3.org/2000/svg"
   xmlns:sodipodi="http://sodipodi.sourceforge.net/DTD/sodipodi-0.dtd"
   xmlns:inkscape="http://www.inkscape.org/namespaces/inkscape"
   sodipodi:docname="ice.svg"
   inkscape:version="1.0 (4035a4fb49, 2020-05-01)"
   id="svg8"
   version="1.1"
   viewBox="0 0 404.23462 145.46078"
   height="145.46078mm"
   width="404.23462mm">
  <defs
     id="defs2">
    <rect
       id="rect839"
       height="24.473957"
       width="38.55357"
       y="73.0439"
       x="27.592262" />
  </defs>
  <sodipodi:namedview
     inkscape:guide-bbox="true"
     showguides="true"
     inkscape:window-maximized="1"
     inkscape:window-y="-9"
     inkscape:window-x="2551"
     inkscape:window-height="1361"
     inkscape:window-width="2560"
     fit-margin-bottom="0"
     fit-margin-right="0"
     fit-margin-left="0"
     fit-margin-top="0"
     showgrid="false"
     inkscape:document-rotation="0"
     inkscape:current-layer="layer1"
     inkscape:document-units="mm"
     inkscape:cy="62.615541"
     inkscape:cx="665.77794"
     inkscape:zoom="0.45254834"
     inkscape:pageshadow="2"
     inkscape:pageopacity="0.0"
     borderopacity="1.0"
     bordercolor="#666666"
     pagecolor="#ffffff"
     id="base" />
  <metadata
     id="metadata5">
    <rdf:RDF>
      <cc:Work
         rdf:about="">
        <dc:format>image/svg+xml</dc:format>
        <dc:type
           rdf:resource="http://purl.org/dc/dcmitype/StillImage" />
        <dc:title></dc:title>
      </cc:Work>
    </rdf:RDF>
  </metadata>
  <g
     transform="translate(139.88753,24.687787)"
     id="layer1"
     inkscape:groupmode="layer"
     inkscape:label="Ebene 1">
    <text
       style="font-size:10.5833px;line-height:1.25;font-family:Bahnschrift;-inkscape-font-specification:Bahnschrift;letter-spacing:0px;word-spacing:0px;white-space:pre;shape-inside:url(#rect839);"
       id="text837"
       xml:space="preserve" />
    <g
       transform="translate(-120.5744,64.633928)"
       id="g2608">
      <path
         id="path2602"
         d="m 43.511696,55.785053 c -1.81189,-0.89689 -3.26333,-3.26882 -4.68483,-7.65594 -0.9262,-2.85851 -1.02602,-3.06057 -2.32295,-4.70239 -2.0015,-2.53378 -2.73407,-4.15438 -4.08483,-9.036527 -0.86919,-3.141584 -1.35427,-6.002017 -1.7385,-10.251587 -0.48714,-5.387873 -0.81723,-7.092458 -2.21014,-11.412944 -2.26047,-7.0114475 -3.71923,-14.7653625 -3.73496,-19.8527675 -0.008,-2.657543 0.015,-2.829313 0.52123,-3.8601715 1.09935,-2.238588 2.75289,-3.290549 9.1653,-5.830846 5.13015,-2.032325 10.39508,-3.75032 15.624344,-5.098363 4.874591,-1.256613 5.930478,-1.681921 6.569358,-2.646121 0.394851,-0.595909 0.431846,-0.875352 0.431698,-3.260841 -3.83e-4,-4.786556 -0.536252,-8.958098 -2.29891,-17.893165 -0.617735,-3.131357 -1.271116,-6.005178 -1.451956,-6.386271 -0.494831,-1.042778 -1.078495,-1.251437 -3.50053,-1.251437 -2.913944,0 -6.837614,0.336152 -8.093574,0.6934 -1.35868,0.386464 -3.39755,1.456125 -4.38251,2.299206 -0.4252,0.363959 -1.01068,1.147352 -1.30106,1.740873 -0.5142,1.050974 -0.52689,1.156727 -0.4864,4.053376 0.0489,3.497839 -0.19233,4.633924 -1.22705,5.779235 -0.86578,0.958323 -1.72807,1.354486 -2.94814,1.354486 -1.24293,0 -2.07128,-0.344932 -2.95815,-1.231802 -1.44724,-1.447241 -1.98693,-3.144095 -2.65858,-8.358907 -0.34962,-2.714502 -0.42363,-4.127442 -0.38685,-7.384845 0.0956,-8.469325 -0.4801,-13.040061 -2.179,-17.298518 -1.07821,-2.702633 -1.2391,-3.864984 -0.70279,-5.077402 0.82716,-1.869933 2.54318,-3.144349 6.15896,-4.574014 3.84354,-1.519718 6.88799,-2.112712 12.78057,-2.489384 4.41944,-0.282504 8.965945,-0.241939 14.108955,0.125884 6.320701,0.452049 14.938806,0.449819 18.694545,-0.0048 4.503545,-0.545184 11.327511,-1.727915 20.811837,-3.607112 5.191147,-1.028558 9.443777,-1.772042 10.495127,-1.834856 1.64078,-0.09803 1.84283,-0.06879 2.81634,0.407504 1.27348,0.623054 2.10281,1.763814 2.43187,3.345093 0.46927,2.255019 0.4596,2.232245 0.97355,2.293318 0.35999,0.04278 0.90471,-0.274437 2.09562,-1.220376 2.19808,-1.745933 2.90246,-2.212195 4.68473,-3.101057 6.06349,-3.024001 10.50797,-2.480188 18.50189,2.26385 1.43043,0.848896 1.43043,0.848896 8.24801,0.977889 11.76855,0.222667 19.37814,0.94668 34.91836,3.322301 10.82836,1.655323 16.05284,2.294917 29.05985,3.557581 4.3254,0.419892 8.30146,0.88979 8.83568,1.044216 1.30812,0.378139 2.43992,1.234944 3.08474,2.335256 0.7245,1.236273 0.76664,2.600333 0.37383,12.101138 -0.5831,14.102635 -0.77192,16.190542 -1.76523,19.51782 -0.25195,0.843982 -0.8882,3.260841 -1.41388,5.370797 -1.16238,4.665559 -1.98196,7.249653 -2.5958,8.184536 -1.54127,2.347355 -4.48506,2.521244 -5.92205,0.349815 -1.02529,-1.549331 -1.11045,-2.131253 -1.36114,-9.301608 -0.14948,-4.27534 -0.31906,-6.922482 -0.46695,-7.288939 -0.34612,-0.857731 -1.13312,-1.600854 -2.34958,-2.218641 -3.47017,-1.762337 -16.7415,-6.529251 -21.35547,-7.670643 -4.27299,-1.057042 -9.96676,-1.501004 -11.18315,-0.871985 -1.22196,0.631901 -1.32739,0.931 -2.54252,7.212669 -1.17901,6.095003 -1.19426,6.74658 -0.17069,7.294379 0.21175,0.113325 1.87136,0.333488 3.68803,0.48925 5.12269,0.439226 5.88784,0.638542 7.20363,1.876507 1.44523,1.359751 1.56195,2.24797 0.8256,6.282442 -0.31549,1.728614 -0.7559,4.437678 -0.97868,6.020145 -0.74016,5.257514 -1.37711,9.383435 -1.65281,10.706181 -0.52631,2.525082 -0.22827,3.200347 1.41254,3.200347 1.28805,0 5.80614,-0.765377 12.9827,-2.199305 3.37926,-0.675201 7.30799,-1.362525 8.7305,-1.527386 1.42251,-0.164862 3.07987,-0.396836 3.68303,-0.5155 1.37205,-0.269935 2.27425,-0.107679 3.05523,0.549465 1.38095,1.161999 1.58306,2.65405 0.92895,6.8576595 -1.76081,11.315901 -1.90792,12.910095 -1.89399,20.5241175 0.006,3.481427 0.0776,7.083156 0.15825,8.003843 0.18218,2.079183 -0.01,3.572065 -0.60748,4.725809 -0.25337,0.489034 -0.851,1.635693 -1.32807,2.548128 -1.17659,2.250333 -1.52104,3.7179 -1.70404,7.260385 -0.18896,3.65791 -0.81716,8.59565 -1.25512,9.86548 -0.59207,1.71665 -2.31222,2.98607 -4.04634,2.98607 -0.89812,0 -2.8506,-1.07994 -3.5808,-1.98058 -0.70494,-0.86949 -1.41524,-2.17679 -1.6827,-3.09703 -0.0929,-0.3195 -0.2972,-2.04829 -0.4541,-3.84175 -0.51716,-5.911422 -1.20655,-10.425328 -1.9771,-12.945279 -0.42852,-1.401396 -1.50294,-2.504959 -2.96363,-3.044026 -1.35112,-0.498628 -6.02876,-1.683449 -11.06339,-2.802295 -7.04022,-1.56455 -10.54094,-2.005088 -17.08108,-2.149516 -5.55727,-0.122721 -6.24411,-0.02689 -7.21952,1.00735 -0.67204,0.712573 -0.92344,1.589334 -1.12324,3.917283 -0.35274,4.109999 -0.80972,4.98461 -3.73217,7.143101 -0.70946,0.524 -0.9758,0.917389 -1.57542,2.326978 -0.82419,1.937467 -1.41801,2.796403 -2.31408,3.347184 -2.61358,1.606486 -5.4087,-0.343359 -6.26827,-4.372678 -0.12322,-0.577622 -0.35157,-2.622503 -0.50745,-4.544184 -0.41385,-5.10208 -1.1608,-10.565506 -1.51929,-11.112644 -0.44678,-0.68186 -1.05773,-0.572034 -2.42958,0.436745 -1.94568,1.430734 -3.28938,2.894382 -3.95635,4.309518 -1.46015,3.098092 -2.95101,8.410756 -3.30266,11.768968 -0.11046,1.054978 -0.37235,3.428678 -0.58197,5.27489 -0.20962,1.846215 -0.46276,4.608335 -0.56253,6.138055 -0.0998,1.52972 -0.31185,3.1491 -0.47129,3.59862 -0.6722,1.89514 -2.08925,3.27526 -3.79864,3.6996 -2.40048,0.59591 -5.04448,-1.21549 -6.78698,-4.64975 -1.3295,-2.62028 -2.33386,-8.746954 -2.96545,-18.089513 -0.33863,-5.008882 -1.11205,-7.795155 -2.81518,-10.141718 -0.39261,-0.540927 -1.53588,-1.847782 -2.54061,-2.90412 C 101.4921,8.5765515 99.30104,5.4158965 96.278977,-0.84305548 94.276007,-4.9913745 93.681928,-5.5782795 92.459328,-4.6165815 c -1.312899,1.032726 -1.599596,3.244602 -1.176291,9.075109 0.523887,7.2159285 0.344592,12.7429315 -0.485336,14.9611145 -1.363432,3.644101 -5.101271,4.420467 -7.789011,1.617815 -2.481475,-2.587568 -3.700234,-6.412369 -4.665512,-14.6416605 -0.451521,-3.849369 -0.510531,-4.167939 -0.923788,-4.987168 -0.891219,-1.76673098 -1.731891,-1.57485398 -11.703427,2.671233 -5.048371,2.149702 -6.978435,3.073076 -7.709832,3.688506 -1.270478,1.069036 -2.057856,3.5379555 -2.590313,8.1222315 -0.529487,4.558711 -1.043561,6.138071 -2.458453,7.552963 -0.653461,0.653463 -1.164498,0.954082 -2.127538,1.251534 -0.697121,0.215319 -1.438221,0.48286 -1.646891,0.594538 -1.36317,0.729546 -1.93938,6.043201 -1.16144,10.710568 0.82729,4.963481 1.2387,15.168441 0.68649,17.027961 -0.74539,2.50998 -3.13446,3.7775 -5.19629,2.75689 z M 169.04891,-12.038863 c 0.48181,-0.612516 0.29203,-1.093287 -0.54701,-1.385777 -0.46489,-0.162063 -0.65144,-0.136521 -0.98692,0.135134 -0.39456,0.319493 -0.39946,0.362448 -0.10618,0.929589 0.48908,0.945774 1.06069,1.057669 1.64011,0.321054 z m -35.54848,-9.384479 c 0.59346,-1.420344 1.61552,-9.784773 1.61552,-13.221224 0,-1.360663 -0.27355,-1.490782 -1.46915,-0.698844 -0.49412,0.327286 -1.06682,0.595067 -1.27268,0.595067 -0.55398,0 -4.12646,2.484135 -4.54255,3.158673 -0.19735,0.319936 -0.5518,1.099601 -0.78766,1.732588 -0.57334,1.538693 -1.21055,2.466443 -1.97784,2.87966 -0.8469,0.456087 -1.38832,0.292135 -2.58332,-0.78227 -0.54453,-0.489586 -1.12387,-0.8521 -1.30577,-0.817071 -0.48534,0.09347 -0.65834,1.070093 -0.59741,3.372633 0.0648,2.450675 0.19892,2.566015 1.74499,1.501197 1.14412,-0.787988 1.61174,-0.83527 2.81705,-0.284833 0.47474,0.216802 1.81265,0.743656 2.97312,1.170784 1.16048,0.42713 2.67101,1.06361 3.35675,1.414402 0.68573,0.350791 1.35909,0.64205 1.49635,0.647238 0.13725,0.0052 0.37692,-0.295411 0.5326,-0.668 z M 91.652878,-37.865324 c 0.277035,-0.427916 1.321338,-5.650615 1.672713,-8.365469 0.100528,-0.776713 0.351185,-2.114617 0.557013,-2.973119 0.446116,-1.860726 0.476904,-2.872138 0.09894,-3.250105 -0.352775,-0.352777 -4.071033,-0.423873 -4.478585,-0.08564 -0.391019,0.324517 -0.145986,5.831711 0.467285,10.502371 0.527324,4.016092 0.669711,4.60354 1.115819,4.60354 0.158076,0 0.413145,-0.194212 0.566819,-0.431582 z"
         style="fill:#00fafa;stroke-width:0.191814" />
      <path
         id="path2600"
         d="m 43.511696,55.785053 c -1.81189,-0.89689 -3.26333,-3.26882 -4.68483,-7.65594 -0.9262,-2.85851 -1.02602,-3.06057 -2.32295,-4.70239 -2.0015,-2.53378 -2.73407,-4.15438 -4.08483,-9.036527 -0.86919,-3.141584 -1.35427,-6.002017 -1.7385,-10.251587 -0.48714,-5.387873 -0.81723,-7.092458 -2.21014,-11.412944 -2.26047,-7.0114475 -3.71923,-14.7653625 -3.73496,-19.8527675 -0.008,-2.657543 0.015,-2.829313 0.52123,-3.8601715 1.09935,-2.238588 2.75289,-3.290549 9.1653,-5.830846 5.13015,-2.032325 10.39508,-3.75032 15.624344,-5.098363 4.874591,-1.256613 5.930478,-1.681921 6.569358,-2.646121 0.394851,-0.595909 0.431846,-0.875352 0.431698,-3.260841 -3.83e-4,-4.786556 -0.536252,-8.958098 -2.29891,-17.893165 -0.617735,-3.131357 -1.271116,-6.005178 -1.451956,-6.386271 -0.494831,-1.042778 -1.078495,-1.251437 -3.50053,-1.251437 -2.913944,0 -6.837614,0.336152 -8.093574,0.6934 -1.35868,0.386464 -3.39755,1.456125 -4.38251,2.299206 -0.4252,0.363959 -1.01068,1.147352 -1.30106,1.740873 -0.5142,1.050974 -0.52689,1.156727 -0.4864,4.053376 0.0489,3.497839 -0.19233,4.633924 -1.22705,5.779235 -0.86578,0.958323 -1.72807,1.354486 -2.94814,1.354486 -1.24293,0 -2.07128,-0.344932 -2.95815,-1.231802 -1.44724,-1.447241 -1.98693,-3.144095 -2.65858,-8.358907 -0.34962,-2.714502 -0.42363,-4.127442 -0.38685,-7.384845 0.0956,-8.469325 -0.4801,-13.040061 -2.179,-17.298518 -1.07821,-2.702633 -1.2391,-3.864984 -0.70279,-5.077402 0.82716,-1.869933 2.54318,-3.144349 6.15896,-4.574014 3.84354,-1.519718 6.88799,-2.112712 12.78057,-2.489384 4.41944,-0.282504 8.965945,-0.241939 14.108955,0.125884 6.320701,0.452049 14.938806,0.449819 18.694545,-0.0048 4.503545,-0.545184 11.327511,-1.727915 20.811837,-3.607112 5.191147,-1.028558 9.443777,-1.772042 10.495127,-1.834856 1.64078,-0.09803 1.84283,-0.06879 2.81634,0.407504 1.27348,0.623054 2.10281,1.763814 2.43187,3.345093 0.46927,2.255019 0.4596,2.232245 0.97355,2.293318 0.35999,0.04278 0.90471,-0.274437 2.09562,-1.220376 2.19808,-1.745933 2.90246,-2.212195 4.68473,-3.101057 6.06349,-3.024001 10.50797,-2.480188 18.50189,2.26385 1.43043,0.848896 1.43043,0.848896 8.24801,0.977889 11.76855,0.222667 19.37814,0.94668 34.91836,3.322301 10.82836,1.655323 16.05284,2.294917 29.05985,3.557581 4.3254,0.419892 8.30146,0.88979 8.83568,1.044216 1.30812,0.378139 2.43992,1.234944 3.08474,2.335256 0.7245,1.236273 0.76664,2.600333 0.37383,12.101138 -0.5831,14.102635 -0.77192,16.190542 -1.76523,19.51782 -0.25195,0.843982 -0.8882,3.260841 -1.41388,5.370797 -1.16238,4.665559 -1.98196,7.249653 -2.5958,8.184536 -1.54127,2.347355 -4.48506,2.521244 -5.92205,0.349815 -1.02529,-1.549331 -1.11045,-2.131253 -1.36114,-9.301608 -0.14948,-4.27534 -0.31906,-6.922482 -0.46695,-7.288939 -0.34612,-0.857731 -1.13312,-1.600854 -2.34958,-2.218641 -3.47017,-1.762337 -16.7415,-6.529251 -21.35547,-7.670643 -4.27299,-1.057042 -9.96676,-1.501004 -11.18315,-0.871985 -1.22196,0.631901 -1.32739,0.931 -2.54252,7.212669 -1.17901,6.095003 -1.19426,6.74658 -0.17069,7.294379 0.21175,0.113325 1.87136,0.333488 3.68803,0.48925 5.12269,0.439226 5.88784,0.638542 7.20363,1.876507 1.44523,1.359751 1.56195,2.24797 0.8256,6.282442 -0.31549,1.728614 -0.7559,4.437678 -0.97868,6.020145 -0.74016,5.257514 -1.37711,9.383435 -1.65281,10.706181 -0.52631,2.525082 -0.22827,3.200347 1.41254,3.200347 1.28805,0 5.80614,-0.765377 12.9827,-2.199305 3.37926,-0.675201 7.30799,-1.362525 8.7305,-1.527386 1.42251,-0.164862 3.07987,-0.396836 3.68303,-0.5155 1.37205,-0.269935 2.27425,-0.107679 3.05523,0.549465 1.38095,1.161999 1.58306,2.65405 0.92895,6.8576595 -1.76081,11.315901 -1.90792,12.910095 -1.89399,20.5241175 0.006,3.481427 0.0776,7.083156 0.15825,8.003843 0.18218,2.079183 -0.01,3.572065 -0.60748,4.725809 -0.25337,0.489034 -0.851,1.635693 -1.32807,2.548128 -1.17659,2.250333 -1.52104,3.7179 -1.70404,7.260385 -0.18896,3.65791 -0.81716,8.59565 -1.25512,9.86548 -0.59207,1.71665 -2.31222,2.98607 -4.04634,2.98607 -0.89812,0 -2.8506,-1.07994 -3.5808,-1.98058 -0.70494,-0.86949 -1.41524,-2.17679 -1.6827,-3.09703 -0.0929,-0.3195 -0.2972,-2.04829 -0.4541,-3.84175 -0.51716,-5.911422 -1.20655,-10.425328 -1.9771,-12.945279 -0.42852,-1.401396 -1.50294,-2.504959 -2.96363,-3.044026 -1.35112,-0.498628 -6.02876,-1.683449 -11.06339,-2.802295 -7.04022,-1.56455 -10.54094,-2.005088 -17.08108,-2.149516 -5.55727,-0.122721 -6.24411,-0.02689 -7.21952,1.00735 -0.67204,0.712573 -0.92344,1.589334 -1.12324,3.917283 -0.35274,4.109999 -0.80972,4.98461 -3.73217,7.143101 -0.70946,0.524 -0.9758,0.917389 -1.57542,2.326978 -0.82419,1.937467 -1.41801,2.796403 -2.31408,3.347184 -2.61358,1.606486 -5.4087,-0.343359 -6.26827,-4.372678 -0.12322,-0.577622 -0.35157,-2.622503 -0.50745,-4.544184 -0.41385,-5.10208 -1.1608,-10.565506 -1.51929,-11.112644 -0.44678,-0.68186 -1.05773,-0.572034 -2.42958,0.436745 -1.94568,1.430734 -3.28938,2.894382 -3.95635,4.309518 -1.46015,3.098092 -2.95101,8.410756 -3.30266,11.768968 -0.11046,1.054978 -0.37235,3.428678 -0.58197,5.27489 -0.20962,1.846215 -0.46276,4.608335 -0.56253,6.138055 -0.0998,1.52972 -0.31185,3.1491 -0.47129,3.59862 -0.6722,1.89514 -2.08925,3.27526 -3.79864,3.6996 -2.40048,0.59591 -5.04448,-1.21549 -6.78698,-4.64975 -1.3295,-2.62028 -2.33386,-8.746954 -2.96545,-18.089513 -0.33863,-5.008882 -1.11205,-7.795155 -2.81518,-10.141718 -0.39261,-0.540927 -1.53588,-1.847782 -2.54061,-2.90412 C 101.4921,8.5765515 99.30104,5.4158965 96.278977,-0.84305548 94.276007,-4.9913745 93.681928,-5.5782795 92.459328,-4.6165815 c -1.312899,1.032726 -1.599596,3.244602 -1.176291,9.075109 0.523887,7.2159285 0.344592,12.7429315 -0.485336,14.9611145 -1.363432,3.644101 -5.101271,4.420467 -7.789011,1.617815 -2.481475,-2.587568 -3.700234,-6.412369 -4.665512,-14.6416605 -0.451521,-3.849369 -0.510531,-4.167939 -0.923788,-4.987168 -0.891219,-1.76673098 -1.731891,-1.57485398 -11.703427,2.671233 -5.048371,2.149702 -6.978435,3.073076 -7.709832,3.688506 -1.270478,1.069036 -2.057856,3.5379555 -2.590313,8.1222315 -0.529487,4.558711 -1.043561,6.138071 -2.458453,7.552963 -0.653461,0.653463 -1.164498,0.954082 -2.127538,1.251534 -0.697121,0.215319 -1.438221,0.48286 -1.646891,0.594538 -1.36317,0.729546 -1.93938,6.043201 -1.16144,10.710568 0.82729,4.963481 1.2387,15.168441 0.68649,17.027961 -0.74539,2.50998 -3.13446,3.7775 -5.19629,2.75689 z m 3.40266,-10.01653 c -0.12644,-1.50492 -0.23063,-3.42675 -0.23153,-4.27073 -10e-4,-1.14275 -0.10293,-1.75488 -0.3984,-2.39768 -0.35774,-0.77828 -0.41172,-1.40078 -0.54886,-6.329866 -0.12006,-4.31483 -0.0964,-5.810246 0.11252,-7.097125 0.14554,-0.896731 0.26495,-2.02957 0.26535,-2.517421 3.9e-4,-0.487851 0.11594,-1.22154 0.25675,-1.63042 0.14081,-0.408881 0.36388,-1.649742 0.49569,-2.757469 0.42082,-3.536265 1.00754,-4.44933 2.42482,-3.77348 0.978583,0.466655 1.10486,0.42093 0.960639,-0.347838 -0.147822,-0.787957 0.142948,-1.441293 0.641451,-1.441293 0.545879,0 0.715799,0.355878 0.954399,1.998863 0.222621,1.532969 0.512299,2.190514 0.826565,1.876247 0.253036,-0.253035 0.578752,-4.136325 0.641795,-7.6516695 0.05569,-3.10521 0.05569,-3.10521 -0.503817,-3.690677 -0.695541,-0.727818 -0.733937,-1.509104 -0.103277,-2.101578 0.784144,-0.736664 12.225349,-5.876948 21.54826,-9.681162 2.556398,-1.043137 6.561839,-2.425026 7.029004,-2.425026 0.615322,0 1.273147,0.874991 1.273147,1.693448 0,0.439717 0.194256,1.100262 0.467942,1.591187 0.865171,1.551896 1.490053,4.42451802 2.212028,10.168808 0.591434,4.705672 0.93514,6.2552145 1.543105,6.9568225 0.282803,0.326363 0.702376,1.219181 0.932382,1.98404 0.475973,1.582781 0.858232,1.797592 1.165858,0.655158 0.358059,-1.329734 0.626975,-6.4660555 0.411687,-7.8632895 -0.548514,-3.559882 -0.446628,-10.511605 0.203701,-13.898568 0.185029,-0.963657 0.168017,-1.193863 -0.12899,-1.745371 -0.546098,-1.014045 -0.293604,-1.5500265 0.949266,-2.0150435 1.602738,-0.599661 3.883663,-1.122311 5.524873,-1.265962 0.816904,-0.0715 1.519222,-0.187431 1.560706,-0.257618 0.04149,-0.07019 -0.170726,-1.336045 -0.471581,-2.813014 -0.300855,-1.47697 -0.679381,-3.807512 -0.84117,-5.178983 -0.306652,-2.599441 -0.375202,-8.166262 -0.130622,-10.607165 0.09737,-0.971725 0.07328,-1.455703 -0.07875,-1.58187 -0.220705,-0.183169 -3.410728,1.754244 -5.257588,3.193119 -1.856465,1.446359 -2.36991,0.571322 -3.444148,-5.869683 -1.181251,-7.082646 -1.443752,-10.990225 -1.25152,-18.629961 0.164158,-6.523946 -0.04189,-6.04451 2.726435,-6.34398 5.662955,-0.612603 13.137094,-2.066623 14.198714,-2.762218 0.25942,-0.169982 0.90866,-1.264734 1.55952,-2.629688 0.61329,-1.286158 1.50953,-3.022147 1.99163,-3.857753 0.83317,-1.444083 0.86291,-1.545677 0.60083,-2.052477 -0.69535,-1.344662 -0.0693,-7.830927 1.39992,-14.50434 0.13883,-0.630577 -0.32252,-0.714046 -1.91589,-0.346627 -7.880242,1.817127 -13.350849,2.9123 -20.667501,4.137474 -7.777048,1.302266 -10.685104,1.574898 -16.975554,1.591467 -4.304611,0.01134 -6.598538,-0.08065 -10.143262,-0.40677 -3.551146,-0.326706 -5.972546,-0.423509 -10.773707,-0.430714 -8.29323,-0.01244 -10.99698,0.349904 -15.62431,2.09393 -2.9951,1.128846 -3.83182,1.517685 -3.95467,1.837816 -0.0627,0.163292 0.13664,0.603618 0.45809,1.012094 1.59184,2.0228 2.87831,6.355649 3.32574,11.201113 0.24865,2.692776 0.13264,7.29014 -0.21863,8.663982 -0.18034,0.705323 -0.18474,1.241853 -0.0189,2.30177 0.11895,0.760138 0.30794,2.676817 0.41997,4.259284 0.24123,3.407385 0.40045,4.507452 0.6604,4.562743 0.10941,0.02327 0.25548,-0.742041 0.34001,-1.781438 0.22757,-2.7982 0.64503,-4.728421 1.17412,-5.428771 0.25486,-0.337357 0.72575,-1.158229 1.04642,-1.824162 0.32067,-0.665933 0.79477,-1.377337 1.05355,-1.580898 0.25879,-0.203563 0.77958,-0.835721 1.15731,-1.404795 0.38731,-0.583518 0.87683,-1.081917 1.12262,-1.143004 0.79603,-0.197839 8.68065,-0.790926 14.473407,-1.088702 2.023781,-0.104033 3.901506,-0.273518 4.172718,-0.376633 0.785316,-0.298576 1.390029,0.09559 1.727983,1.12635 0.440798,1.344433 2.917,11.465291 3.548086,14.501921 1.255546,6.041385 1.84492,12.017284 1.703676,17.274287 -0.09467,3.52365 -0.108001,3.547487 -2.651867,4.743222 -0.896731,0.421506 -1.85459,0.923355 -2.128575,1.115225 -0.273986,0.191867 -1.655048,0.691152 -3.069027,1.109522 -8.963671,2.652178 -11.450851,3.415888 -13.504271,4.146602 -3.10525,1.105007 -11.01375,4.272387 -11.58256,4.638848 -0.42401,0.273176 -0.44925,0.381119 -0.34647,1.481805 0.32625,3.4936905 2.33619,12.6558655 3.94016,17.9609045 1.81729,6.0105715 1.81325,5.9882535 1.8569,10.2528195 0.0453,4.431853 0.15751,5.551519 0.77165,7.703486 0.24571,0.860988 0.67072,2.932581 0.94448,4.60354 0.69667,4.252455 1.41833,6.394855 2.15408,6.394855 0.17539,0 0.51052,-0.18003 0.74473,-0.40006 0.34274,-0.321983 0.50151,-0.359573 0.8135,-0.192598 0.59602,0.318978 1.66521,3.366038 2.42906,6.922528 0.54104,2.51905 1.32284,5.09514 1.67512,5.51961 0.50604,0.60974 0.60291,-0.13869 0.37265,-2.8793 z m 76.247474,-4.07892 c 0.12548,-0.52749 0.30724,-1.73592 0.40392,-2.6854 0.25461,-2.50072 1.13652,-8.953057 1.46816,-10.74159 0.1565,-0.843982 0.42603,-2.570309 0.59896,-3.836283 0.20692,-1.514843 0.60575,-3.187064 1.16657,-4.891262 0.46868,-1.42422 1.10862,-3.366338 1.42209,-4.315818 0.31347,-0.949481 0.56873,-2.121285 0.56725,-2.60401 -0.003,-1.026498 0.15538,-1.205215 2.29907,-2.591782 2.73599,-1.7696705 6.93185,-6.4787445 8.34347,-9.36400748 0.49257,-1.00676 0.49257,-1.00676 0.27964,-6.36275102 -0.11712,-2.945796 -0.28515,-5.5379625 -0.37342,-5.7603685 -0.11826,-0.298005 -0.63155,-0.558086 -1.95127,-0.988697 -1.70974,-0.557872 -7.29209,-3.081236 -9.22796,-4.171272 -0.50352,-0.283518 -1.03217,-0.470716 -1.17477,-0.415993 -0.1426,0.05472 -0.32016,0.516362 -0.39456,1.025868 -0.23303,1.595704 -1.03077,3.689327 -2.69178,7.0644255 -2.34235,4.759572 -3.3735,5.95786 -5.10472,5.932126 -1.31915,-0.01961 -1.84638,-0.468893 -2.80482,-2.390191 -1.24663,-2.49898 -1.48948,-4.025327 -1.47915,-9.2963595 0.0144,-7.370103 0.98206,-14.988421 2.77732,-21.866816 2.53564,-9.715093 5.9653,-17.986415 8.08333,-19.494583 0.81286,-0.578805 1.91876,-0.5711 2.54555,0.01774 0.76087,0.714797 1.06367,2.056025 1.05973,4.694017 -0.003,1.768335 -0.11407,2.789966 -0.47198,4.326923 -0.4533,1.946649 -0.42426,2.637901 0.0851,2.024213 0.13505,-0.162718 0.3489,-0.29585 0.47524,-0.29585 0.12634,0 0.57874,-0.388424 1.00533,-0.863164 0.77562,-0.863164 0.77562,-0.863164 2.09653,-0.858215 3.52371,0.0132 7.87362,0.812413 9.83708,1.807375 1.06454,0.539441 1.55408,0.45412 1.55408,-0.270857 0,-0.611316 1.70217,-7.222957 2.20019,-8.546079 0.33777,-0.897387 0.43148,-1.373844 0.29671,-1.508619 -0.13478,-0.134774 -0.88556,-0.02905 -2.37722,0.334762 -2.6915,0.656444 -4.97697,0.868136 -5.22083,0.483581 -0.4812,-0.758817 -1.08085,-2.595971 -1.4327,-4.389405 -0.99622,-5.077774 -1.0325,-18.102011 -0.0612,-21.962723 0.28955,-1.150885 0.28955,-1.150885 -0.59598,-1.937467 -1.69697,-1.507352 -5.71885,-3.285888 -8.18229,-3.618339 -1.97032,-0.265903 -5.76587,1.218401 -8.21576,3.21289 -2.55634,2.081155 -5.89639,6.246423 -9.12184,11.375553 -4.3873,6.976719 -7.26798,14.017465 -8.90032,21.75353 -0.64846,3.073197 -2.878688,15.687329 -3.187417,18.027966 -0.793704,6.01748 -0.432309,10.921177 1.370397,18.594601 1.44639,6.1567105 4.19416,12.1911945 7.62982,16.7561105 2.48164,3.297324 4.20309,4.989043 7.60172,7.4703905 1.55431,1.134807 1.74652,1.793311 1.96353,6.727019 0.12239,2.782588 0.27547,4.442404 0.44173,4.789502 0.13993,0.29215 0.31246,1.24163 0.38341,2.109956 0.11742,1.43716 0.94996,7.42251 1.46024,10.498135 0.11378,0.685736 0.59946,2.455225 1.0793,3.932195 1.3026,4.00945 1.36763,4.15381 1.8407,4.08613 0.31304,-0.0448 0.45779,-0.27707 0.63383,-1.01711 z m 78.92959,-1.87019 c 0.0178,-0.0264 0.0899,-2.6806 0.16031,-5.898281 0.13611,-6.221363 0.23296,-6.943008 1.53162,-11.412944 0.28822,-0.992038 0.359,-1.622032 0.27099,-2.412276 -0.11911,-1.069579 -0.11911,-1.069579 0.67364,-1.728085 0.79276,-0.658505 0.79276,-0.658505 0.5607,-2.191262 -0.317,-2.093772 -0.31506,-11.4279165 0.003,-14.5761225 0.30271,-2.996034 1.52057,-10.408532 2.24609,-13.6707645 0.2879,-1.294552 0.47574,-2.40145 0.41742,-2.459775 -0.0583,-0.05832 -0.37202,0.03149 -0.69709,0.199594 -0.90047,0.46565 -4.792,1.541313 -8.29328,2.292356 -11.21627,2.4059515 -19.53621,3.2482895 -28.16679,2.8517005 -4.35029,-0.199903 -4.52096,-0.194099 -5.03397,0.171196 -0.73815,0.525609 -1.63192,0.406558 -2.14477,-0.285686 -0.37352,-0.504164 -0.40098,-0.7743325 -0.38021,-3.7403755 0.0312,-4.449665 0.3627,-5.998563 1.4574,-6.808621 0.45613,-0.33753 0.61165,-0.358073 1.25393,-0.165641 0.63857,0.191321 0.97989,0.148821 2.64422,-0.329245 1.05105,-0.301906 2.77998,-0.700557 3.84206,-0.885892 2.26517,-0.395275 2.75176,-0.267803 3.52215,0.922689 0.29474,0.455463 0.53338,0.653469 0.64865,0.5382 0.1003,-0.100297 0.20458,-1.116216 0.23174,-2.257597 0.0321,-1.347778 0.16101,-2.377813 0.36783,-2.938401 0.17515,-0.47474 0.5299,-2.212613 0.78834,-3.861939 0.49531,-3.161006 1.10294,-6.336069 1.42523,-7.447362 0.10586,-0.364988 0.12856,-0.725332 0.0505,-0.800765 -0.0781,-0.07543 -2.59874,-0.371308 -5.60142,-0.657498 -5.18203,-0.493912 -5.46953,-0.503217 -5.65851,-0.183131 -0.93157,1.577775 -1.28569,1.811742 -2.34121,1.546822 -0.62776,-0.157556 -1.0775,-1.227145 -0.91542,-2.177085 0.3503,-2.053135 1.96997,-9.772096 2.98633,-14.232098 1.16042,-5.092194 2.14861,-8.13698 2.91147,-8.970779 0.60419,-0.66036 2.04655,-1.001007 5.22041,-1.232924 5.16948,-0.377734 9.63038,0.378058 17.16288,2.907832 10.5499,3.543167 19.99108,7.315294 21.23561,8.484475 0.23842,0.223994 0.48435,0.717145 0.54648,1.09589 0.0621,0.378744 0.27924,1.39445 0.48247,2.257127 0.20322,0.862674 0.36951,2.049525 0.36951,2.637445 0,0.587918 0.0813,1.068944 0.18074,1.068944 0.0994,0 0.36399,-0.625794 0.58793,-1.390653 0.22393,-0.764859 0.53685,-1.779077 0.69535,-2.253817 0.19571,-0.586199 0.37362,-2.61727 0.5544,-6.329867 0.57761,-11.860701 0.69318,-13.989768 0.87891,-16.190908 0.15411,-1.826119 0.14256,-2.331245 -0.0575,-2.518001 -0.13766,-0.12849 -1.32925,-0.334054 -2.64797,-0.456807 -15.37588,-1.43127 -23.41761,-2.406026 -36.54061,-4.42917 -12.85302,-1.981521 -17.74852,-2.555352 -26.18263,-3.069018 -4.47505,-0.272545 -12.22259,-0.530741 -12.77233,-0.425652 -0.94446,0.180546 -1.08393,0.601689 -1.2687,3.831003 -0.26671,4.66175 0.39846,19.43775 0.9063,20.132265 0.20596,0.28166 0.53526,0.226667 3.49182,-0.583132 3.05583,-0.836985 4.73374,-1.072966 5.51031,-0.774969 0.44416,0.170438 0.87176,1.09195 0.87176,1.878697 0,0.480686 -0.17098,0.868937 -0.59569,1.352654 -0.72826,0.829439 -1.13712,2.08803 -2.08951,6.43202 -1.08589,4.95292 -1.26904,6.206142 -0.99489,6.807823 0.35905,0.788021 0.27006,1.470612 -0.26445,2.028521 -0.57635,0.601574 -0.98976,2.829919 -2.09723,11.304145 -1.14521,8.763082 -1.47761,13.80408 -1.0005,15.173272 0.1697,0.487013 0.19586,1.110539 0.0885,2.109956 -0.0838,0.78026 -0.20239,2.8225645 -0.26355,4.5384555 -0.11119,3.1198 -0.11119,3.1198 0.57993,3.884789 0.82958,0.918246 0.87272,1.463103 0.22953,2.89861402 -0.4616,1.030203 -0.4616,1.030203 0.18523,7.36007098 0.35576,3.4814275 0.69875,6.5456595 0.7622,6.8094035 0.0635,0.263745 -0.0116,1.087876 -0.16683,1.831405 -0.22742,1.089434 -0.25231,2.087934 -0.12826,5.143524 0.0847,2.085412 0.20011,3.837836 0.25655,3.894275 0.29537,0.295367 0.46694,-0.301563 0.57245,-1.991672 0.13237,-2.120412 1.26012,-6.755981 1.83307,-7.534833 0.38926,-0.529129 0.78819,-0.666042 1.45389,-0.498962 0.57636,0.144658 0.79201,0.761679 1.07941,3.088454 0.46973,3.802842 0.92896,2.838374 1.25406,-2.633743 0.10226,-1.721174 0.0711,-2.136344 -0.18992,-2.53479 -0.46192,-0.704977 -0.38688,-1.403969 0.21528,-2.00549 0.56989,-0.5692825 1.56722,-0.7921295 5.22694,-1.1679395 4.67382,-0.479944 13.47036,0.034 19.93556,1.1647515 3.12132,0.545913 11.43349,2.48056 16.60504,3.864804 5.03643,1.34808 5.4667,1.585778 5.4667,3.020019 0,0.435656 0.13431,1.413353 0.29846,2.172663 0.16414,0.759312 0.46756,2.157413 0.67426,3.106893 0.2067,0.94948 0.67467,4.143186 1.03995,7.097125 0.96343,7.7911 1.2026,9.43486 1.43633,9.8716 0.17731,0.3313 0.49791,0.51089 0.61142,0.3425 z m -33.04251,-51.858276 c 0.48181,-0.612516 0.29203,-1.093287 -0.54701,-1.385777 -0.46489,-0.162063 -0.65144,-0.136521 -0.98692,0.135134 -0.39456,0.319493 -0.39946,0.362448 -0.10618,0.929589 0.48908,0.945774 1.06069,1.057669 1.64011,0.321054 z m -35.54848,-9.384479 c 0.59346,-1.420344 1.61552,-9.784773 1.61552,-13.221224 0,-1.360663 -0.27355,-1.490782 -1.46915,-0.698844 -0.49412,0.327286 -1.06682,0.595067 -1.27268,0.595067 -0.55398,0 -4.12646,2.484135 -4.54255,3.158673 -0.19735,0.319936 -0.5518,1.099601 -0.78766,1.732588 -0.57334,1.538693 -1.21055,2.466443 -1.97784,2.87966 -0.8469,0.456087 -1.38832,0.292135 -2.58332,-0.78227 -0.54453,-0.489586 -1.12387,-0.8521 -1.30577,-0.817071 -0.48534,0.09347 -0.65834,1.070093 -0.59741,3.372633 0.0648,2.450675 0.19892,2.566015 1.74499,1.501197 1.14412,-0.787988 1.61174,-0.83527 2.81705,-0.284833 0.47474,0.216802 1.81265,0.743656 2.97312,1.170784 1.16048,0.42713 2.67101,1.06361 3.35675,1.414402 0.68573,0.350791 1.35909,0.64205 1.49635,0.647238 0.13725,0.0052 0.37692,-0.295411 0.5326,-0.668 z M 91.652878,-37.865324 c 0.277035,-0.427916 1.321338,-5.650615 1.672713,-8.365469 0.100528,-0.776713 0.351185,-2.114617 0.557013,-2.973119 0.446116,-1.860726 0.476904,-2.872138 0.09894,-3.250105 -0.352775,-0.352777 -4.071033,-0.423873 -4.478585,-0.08564 -0.391019,0.324517 -0.145986,5.831711 0.467285,10.502371 0.527324,4.016092 0.669711,4.60354 1.115819,4.60354 0.158076,0 0.413145,-0.194212 0.566819,-0.431582 z"
         style="fill:#030808;stroke-width:0.191814" />
    </g>
    <g
       transform="translate(5.4777018,-0.28459928)"
       style="font-size:10.5833px;line-height:1.25;font-family:Bahnschrift;-inkscape-font-specification:Bahnschrift;letter-spacing:0px;word-spacing:0px;stroke-width:0.264583"
       id="text2614"
       aria-label="n">
      <g
         style="opacity:1"
         id="g2664">
        <path
           id="path2666"
           d="m -111.02332,84.680527 h -13.74594 V 62.631901 c 0,-1.814418 -0.28709,-2.974268 -0.86128,-3.479549 -0.55121,-0.505281 -1.25171,-0.757922 -2.1015,-0.757922 -2.50344,0 -3.75516,1.745516 -3.75516,5.236549 v 21.049548 h -13.74594 V 49.643882 h 12.74686 v 4.960941 c 1.88332,-3.789607 5.24803,-5.684411 10.09414,-5.684411 2.54937,0 4.69682,0.493797 6.44233,1.481392 1.76848,0.964627 3.03168,2.22783 3.78961,3.789607 0.75792,1.538811 1.13688,4.225987 1.13688,8.061529 z"
           style="color:#000000;font-style:normal;font-variant:normal;font-weight:normal;font-stretch:normal;font-size:70.5556px;line-height:1.25;font-family:'Franklin Gothic Heavy';-inkscape-font-specification:'Franklin Gothic Heavy, ';font-variant-ligatures:normal;font-variant-position:normal;font-variant-caps:normal;font-variant-numeric:normal;font-variant-alternates:normal;font-variant-east-asian:normal;font-feature-settings:normal;font-variation-settings:normal;text-indent:0;text-align:start;text-decoration:none;text-decoration-line:none;text-decoration-style:solid;text-decoration-color:#000000;letter-spacing:0px;word-spacing:0px;text-transform:none;writing-mode:lr-tb;direction:ltr;text-orientation:mixed;dominant-baseline:auto;baseline-shift:baseline;text-anchor:start;white-space:normal;shape-padding:0;shape-margin:0;inline-size:0;clip-rule:nonzero;display:inline;overflow:visible;visibility:visible;isolation:auto;mix-blend-mode:normal;color-interpolation:sRGB;color-interpolation-filters:linearRGB;solid-color:#000000;solid-opacity:1;vector-effect:none;fill:#000000;fill-opacity:1;fill-rule:nonzero;stroke:none;stroke-width:0.264583;stroke-linecap:butt;stroke-linejoin:miter;stroke-miterlimit:4;stroke-dasharray:none;stroke-dashoffset:0;stroke-opacity:1;color-rendering:auto;image-rendering:auto;shape-rendering:auto;text-rendering:auto;enable-background:accumulate;stop-color:#000000;stop-opacity:1" />
        <path
           id="path2668"
           d="m -122.39258,48.789062 c -4.70141,0 -8.01959,1.83377 -9.96094,5.388672 v -4.666015 h -13.01171 V 84.8125 h 14.00976 V 63.630859 c 0,-1.729705 0.31254,-3.010792 0.91406,-3.849609 0.60152,-0.838817 1.48801,-1.253906 2.70899,-1.253906 0.82356,0 1.48547,0.240257 2.01172,0.722656 h 0.002 v 0.002 c 0.51523,0.453401 0.81641,1.580396 0.81641,3.380859 V 84.8125 h 14.01172 V 84.679688 62.253906 c -1e-5,-3.844256 -0.37323,-6.543199 -1.1504,-8.121094 -0.77053,-1.587754 -2.05722,-2.870678 -3.84375,-3.845703 l -0.002,-0.002 c -1.76915,-1.000387 -3.94042,-1.496094 -6.50586,-1.496094 z m 0,0.263672 c 2.53229,0 4.65547,0.490842 6.37696,1.464844 h 0.002 c 1.7491,0.95406 2.98942,2.19738 3.73437,3.732422 0.73867,1.499727 1.12305,4.177078 1.12305,8.003906 v 22.294922 h -13.48047 V 62.632812 c 0,-1.826746 -0.27236,-3.020328 -0.9043,-3.578124 -0.57617,-0.528164 -1.3154,-0.792969 -2.1914,-0.792969 -1.28247,0 -2.27363,0.458534 -2.92383,1.365234 -0.6502,0.9067 -0.96289,2.242579 -0.96289,4.003906 v 20.917969 h -13.48242 V 49.775391 h 12.48242 v 4.830078 l 0.25195,0.05859 c 1.8632,-3.74911 5.16299,-5.611328 9.97461,-5.611328 z"
           style="color:#000000;font-style:normal;font-variant:normal;font-weight:normal;font-stretch:normal;font-size:70.5556px;line-height:1.25;font-family:'Franklin Gothic Heavy';-inkscape-font-specification:'Franklin Gothic Heavy, ';font-variant-ligatures:normal;font-variant-position:normal;font-variant-caps:normal;font-variant-numeric:normal;font-variant-alternates:normal;font-variant-east-asian:normal;font-feature-settings:normal;font-variation-settings:normal;text-indent:0;text-align:start;text-decoration:none;text-decoration-line:none;text-decoration-style:solid;text-decoration-color:#000000;letter-spacing:0px;word-spacing:0px;text-transform:none;writing-mode:lr-tb;direction:ltr;text-orientation:mixed;dominant-baseline:auto;baseline-shift:baseline;text-anchor:start;white-space:normal;shape-padding:0;shape-margin:0;inline-size:0;clip-rule:nonzero;display:inline;overflow:visible;visibility:visible;isolation:auto;mix-blend-mode:normal;color-interpolation:sRGB;color-interpolation-filters:linearRGB;solid-color:#000000;solid-opacity:1;vector-effect:none;fill-opacity:1;fill-rule:nonzero;stroke:none;stroke-width:0.264583;stroke-linecap:butt;stroke-linejoin:miter;stroke-miterlimit:4;stroke-dasharray:none;stroke-dashoffset:0;stroke-opacity:1;color-rendering:auto;image-rendering:auto;shape-rendering:auto;text-rendering:auto;enable-background:accumulate;stop-color:#000000;stop-opacity:1" />
      </g>
    </g>
    <g
       transform="translate(-0.15870183,0.62360372)"
       style="font-size:70.5556px;line-height:1.25;font-family:Bahnschrift;-inkscape-font-specification:Bahnschrift;letter-spacing:0px;word-spacing:0px;stroke-width:0.264583"
       id="text2618"
       aria-label=".cube">
      <g
         style="opacity:1"
         id="g2631">
        <path
           id="path2633"
           d="M 112.37636,83.77195 H 101.73101 V 73.126598 h 10.64535 z"
           style="color:#000000;font-style:normal;font-variant:normal;font-weight:normal;font-stretch:normal;font-size:70.5556px;line-height:1.25;font-family:'Franklin Gothic Demi';-inkscape-font-specification:'Franklin Gothic Demi';font-variant-ligatures:normal;font-variant-position:normal;font-variant-caps:normal;font-variant-numeric:normal;font-variant-alternates:normal;font-variant-east-asian:normal;font-feature-settings:normal;font-variation-settings:normal;text-indent:0;text-align:start;text-decoration:none;text-decoration-line:none;text-decoration-style:solid;text-decoration-color:#000000;letter-spacing:0px;word-spacing:0px;text-transform:none;writing-mode:lr-tb;direction:ltr;text-orientation:mixed;dominant-baseline:auto;baseline-shift:baseline;text-anchor:start;white-space:normal;shape-padding:0;shape-margin:0;inline-size:0;clip-rule:nonzero;display:inline;overflow:visible;visibility:visible;isolation:auto;mix-blend-mode:normal;color-interpolation:sRGB;color-interpolation-filters:linearRGB;solid-color:#000000;solid-opacity:1;vector-effect:none;fill:#000000;fill-opacity:1;fill-rule:nonzero;stroke:none;stroke-width:0.264583;stroke-linecap:butt;stroke-linejoin:miter;stroke-miterlimit:4;stroke-dasharray:none;stroke-dashoffset:0;stroke-opacity:1;color-rendering:auto;image-rendering:auto;shape-rendering:auto;text-rendering:auto;enable-background:accumulate;stop-color:#000000;stop-opacity:1" />
        <path
           id="path2635"
           d="m 101.59961,72.994141 v 10.910156 h 10.9082 V 83.771484 72.994141 Z m 0.26367,0.265625 h 10.38086 v 10.380859 h -10.38086 z"
           style="color:#000000;font-style:normal;font-variant:normal;font-weight:normal;font-stretch:normal;font-size:70.5556px;line-height:1.25;font-family:'Franklin Gothic Demi';-inkscape-font-specification:'Franklin Gothic Demi';font-variant-ligatures:normal;font-variant-position:normal;font-variant-caps:normal;font-variant-numeric:normal;font-variant-alternates:normal;font-variant-east-asian:normal;font-feature-settings:normal;font-variation-settings:normal;text-indent:0;text-align:start;text-decoration:none;text-decoration-line:none;text-decoration-style:solid;text-decoration-color:#000000;letter-spacing:0px;word-spacing:0px;text-transform:none;writing-mode:lr-tb;direction:ltr;text-orientation:mixed;dominant-baseline:auto;baseline-shift:baseline;text-anchor:start;white-space:normal;shape-padding:0;shape-margin:0;inline-size:0;clip-rule:nonzero;display:inline;overflow:visible;visibility:visible;isolation:auto;mix-blend-mode:normal;color-interpolation:sRGB;color-interpolation-filters:linearRGB;solid-color:#000000;solid-opacity:1;vector-effect:none;fill-opacity:1;fill-rule:nonzero;stroke:none;stroke-width:0.264583;stroke-linecap:butt;stroke-linejoin:miter;stroke-miterlimit:4;stroke-dasharray:none;stroke-dashoffset:0;stroke-opacity:1;color-rendering:auto;image-rendering:auto;shape-rendering:auto;text-rendering:auto;enable-background:accumulate;stop-color:#000000;stop-opacity:1" />
      </g>
      <g
         style="opacity:1"
         id="g2637">
        <path
           id="path2639"
           d="m 150.99591,70.715029 c -0.39045,4.11115 -2.02113,7.441411 -4.89204,9.990784 -2.84795,2.526405 -6.5342,3.789607 -11.05876,3.789607 -4.91501,0 -8.92281,-1.619196 -12.0234,-4.857588 -3.07762,-3.261359 -4.61643,-7.613665 -4.61643,-13.05692 0,-5.443255 1.57326,-9.85298 4.71979,-13.229176 3.16949,-3.399163 7.39547,-5.098745 12.67796,-5.098745 4.24895,0 7.76295,1.274686 10.542,3.824059 2.80201,2.549373 4.35231,5.74183 4.65088,9.577372 l -9.57737,0.551216 c -0.32155,-4.180052 -2.13597,-6.270078 -5.44326,-6.270078 -4.06521,0 -6.09782,3.330261 -6.09782,9.990783 0,4.432693 0.5627,7.246189 1.6881,8.44049 1.14837,1.194301 2.53789,1.791451 4.16857,1.791451 3.16949,0 5.06429,-2.009641 5.68441,-6.028922 z"
           style="color:#000000;font-style:normal;font-variant:normal;font-weight:normal;font-stretch:normal;font-size:70.5556px;line-height:1.25;font-family:'Franklin Gothic Demi';-inkscape-font-specification:'Franklin Gothic Demi';font-variant-ligatures:normal;font-variant-position:normal;font-variant-caps:normal;font-variant-numeric:normal;font-variant-alternates:normal;font-variant-east-asian:normal;font-feature-settings:normal;font-variation-settings:normal;text-indent:0;text-align:start;text-decoration:none;text-decoration-line:none;text-decoration-style:solid;text-decoration-color:#000000;letter-spacing:0px;word-spacing:0px;text-transform:none;writing-mode:lr-tb;direction:ltr;text-orientation:mixed;dominant-baseline:auto;baseline-shift:baseline;text-anchor:start;white-space:normal;shape-padding:0;shape-margin:0;inline-size:0;clip-rule:nonzero;display:inline;overflow:visible;visibility:visible;isolation:auto;mix-blend-mode:normal;color-interpolation:sRGB;color-interpolation-filters:linearRGB;solid-color:#000000;solid-opacity:1;vector-effect:none;fill:#000000;fill-opacity:1;fill-rule:nonzero;stroke:none;stroke-width:0.264583;stroke-linecap:butt;stroke-linejoin:miter;stroke-miterlimit:4;stroke-dasharray:none;stroke-dashoffset:0;stroke-opacity:1;color-rendering:auto;image-rendering:auto;shape-rendering:auto;text-rendering:auto;enable-background:accumulate;stop-color:#000000;stop-opacity:1" />
        <path
           id="path2641"
           d="m 135.80273,48.121094 c -5.31086,0 -9.5809,1.71465 -12.77539,5.140625 -3.1707,3.402136 -4.7539,7.849614 -4.7539,13.318359 0,5.468187 1.54951,9.86036 4.65234,13.148438 3.12474,3.263613 7.17508,4.898437 12.11914,4.898437 4.54918,0 8.27252,-1.272781 11.14649,-3.822265 2.89508,-2.570839 4.54245,-5.939156 4.93554,-10.078126 l 0.0137,-0.134765 -0.13671,-0.0098 -9.69727,-0.591797 -0.0195,0.119141 c -0.30747,1.992857 -0.92942,3.47314 -1.85156,4.451172 -0.92215,0.978032 -2.14439,1.464844 -3.70117,1.464844 -1.59783,0 -2.94583,-0.579076 -4.07227,-1.75 -1.06938,-1.134848 -1.65234,-3.928113 -1.65234,-8.34961 0,-3.316804 0.50998,-5.792174 1.50585,-7.423828 0.99588,-1.631654 2.46251,-2.433594 4.45899,-2.433594 1.62578,0 2.86106,0.50652 3.74219,1.521485 0.88112,1.014965 1.41087,2.552265 1.57031,4.625 l 0.01,0.130859 9.84179,-0.566406 -0.0117,-0.134766 c -0.30084,-3.864705 -1.86934,-7.094201 -4.69336,-9.664062 -2.80379,-2.572077 -6.35544,-3.859375 -10.63086,-3.859375 z m 0,0.263672 c 4.2225,0 7.69883,1.262393 10.45313,3.789062 v 0.002 c 2.74508,2.497575 4.26324,5.610344 4.58594,9.353516 l -9.31446,0.539062 c -0.17521,-2.036412 -0.69934,-3.601829 -1.61132,-4.652343 -0.9333,-1.075061 -2.2599,-1.613282 -3.94141,-1.613282 -2.06873,0 -3.64881,0.863894 -4.68555,2.5625 -1.03673,1.698607 -1.54297,4.216829 -1.54297,7.560547 0,4.443889 0.54124,7.277497 1.72266,8.53125 l 0.002,0.002 c 1.17005,1.216852 2.6007,1.832032 4.26368,1.832032 1.6127,0 2.92187,-0.51722 3.89453,-1.548828 0.9513,-1.008956 1.56901,-2.513829 1.88867,-4.47461 l 9.32226,0.570313 c -0.41132,4.018111 -2.01036,7.270829 -4.82422,9.769531 -2.82192,2.503325 -6.47076,3.755859 -10.9707,3.755859 -4.88595,0 -8.85129,-1.603236 -11.92773,-4.816406 -3.05241,-3.234639 -4.58008,-7.548475 -4.58008,-12.966797 0,-5.417764 1.5632,-9.788416 4.68555,-13.138672 3.14448,-3.372352 7.32596,-5.05664 12.58007,-5.05664 z"
           style="color:#000000;font-style:normal;font-variant:normal;font-weight:normal;font-stretch:normal;font-size:70.5556px;line-height:1.25;font-family:'Franklin Gothic Demi';-inkscape-font-specification:'Franklin Gothic Demi';font-variant-ligatures:normal;font-variant-position:normal;font-variant-caps:normal;font-variant-numeric:normal;font-variant-alternates:normal;font-variant-east-asian:normal;font-feature-settings:normal;font-variation-settings:normal;text-indent:0;text-align:start;text-decoration:none;text-decoration-line:none;text-decoration-style:solid;text-decoration-color:#000000;letter-spacing:0px;word-spacing:0px;text-transform:none;writing-mode:lr-tb;direction:ltr;text-orientation:mixed;dominant-baseline:auto;baseline-shift:baseline;text-anchor:start;white-space:normal;shape-padding:0;shape-margin:0;inline-size:0;clip-rule:nonzero;display:inline;overflow:visible;visibility:visible;isolation:auto;mix-blend-mode:normal;color-interpolation:sRGB;color-interpolation-filters:linearRGB;solid-color:#000000;solid-opacity:1;vector-effect:none;fill-opacity:1;fill-rule:nonzero;stroke:none;stroke-width:0.264583;stroke-linecap:butt;stroke-linejoin:miter;stroke-miterlimit:4;stroke-dasharray:none;stroke-dashoffset:0;stroke-opacity:1;color-rendering:auto;image-rendering:auto;shape-rendering:auto;text-rendering:auto;enable-background:accumulate;stop-color:#000000;stop-opacity:1" />
      </g>
      <g
         style="opacity:1"
         id="g2643">
        <path
           id="path2645"
           d="M 186.23926,48.976462 V 83.77195 h -9.50847 v -5.925568 c -1.79145,4.432692 -5.21358,6.649038 -10.26639,6.649038 -2.61827,0 -4.62791,-0.482314 -6.02892,-1.446941 -1.40101,-0.987595 -2.41157,-2.319699 -3.03169,-3.996313 -0.59715,-1.699582 -0.89572,-4.145602 -0.89572,-7.338059 V 48.976462 h 9.95633 v 22.737645 c 0,3.123555 1.28617,4.685333 3.85851,4.685333 1.30913,0 2.44601,-0.367477 3.41064,-1.102431 0.96463,-0.757921 1.57327,-1.561777 1.82591,-2.411568 0.27561,-0.849791 0.41341,-2.308216 0.41341,-4.375275 V 48.976462 Z"
           style="color:#000000;font-style:normal;font-variant:normal;font-weight:normal;font-stretch:normal;font-size:70.5556px;line-height:1.25;font-family:'Franklin Gothic Demi';-inkscape-font-specification:'Franklin Gothic Demi';font-variant-ligatures:normal;font-variant-position:normal;font-variant-caps:normal;font-variant-numeric:normal;font-variant-alternates:normal;font-variant-east-asian:normal;font-feature-settings:normal;font-variation-settings:normal;text-indent:0;text-align:start;text-decoration:none;text-decoration-line:none;text-decoration-style:solid;text-decoration-color:#000000;letter-spacing:0px;word-spacing:0px;text-transform:none;writing-mode:lr-tb;direction:ltr;text-orientation:mixed;dominant-baseline:auto;baseline-shift:baseline;text-anchor:start;white-space:normal;shape-padding:0;shape-margin:0;inline-size:0;clip-rule:nonzero;display:inline;overflow:visible;visibility:visible;isolation:auto;mix-blend-mode:normal;color-interpolation:sRGB;color-interpolation-filters:linearRGB;solid-color:#000000;solid-opacity:1;vector-effect:none;fill:#000000;fill-opacity:1;fill-rule:nonzero;stroke:none;stroke-width:0.264583;stroke-linecap:butt;stroke-linejoin:miter;stroke-miterlimit:4;stroke-dasharray:none;stroke-dashoffset:0;stroke-opacity:1;color-rendering:auto;image-rendering:auto;shape-rendering:auto;text-rendering:auto;enable-background:accumulate;stop-color:#000000;stop-opacity:1" />
        <path
           id="path2647"
           d="m 156.375,48.84375 v 22.871094 c 0,3.200705 0.29856,5.656837 0.9043,7.380859 v 0.002 c 0.62843,1.699089 1.65777,3.055983 3.08008,4.058594 l 0.002,0.002 c 1.43271,0.986457 3.46899,1.46875 6.10351,1.46875 4.89675,0 8.27066,-2.14251 10.13282,-6.28125 v 5.558594 h 9.77343 V 48.84375 h -0.13086 -10.40039 v 19.666016 c 0,2.061179 -0.14035,3.514135 -0.40625,4.333984 v 0.002 0.002 c -0.24259,0.816004 -0.83109,1.599155 -1.78125,2.345703 -0.94121,0.716379 -2.04667,1.074219 -3.33007,1.074219 -1.2594,0 -2.17545,-0.375566 -2.79102,-1.123047 -0.61557,-0.74748 -0.93359,-1.886067 -0.93359,-3.429687 V 48.84375 Z m 0.26562,0.265625 h 9.69141 v 22.605469 c 0,1.579935 0.32354,2.783359 0.99414,3.597656 0.6706,0.814297 1.68315,1.21875 2.9961,1.21875 1.33389,0 2.50461,-0.376468 3.49218,-1.128906 v -0.002 c 0.97862,-0.768909 1.60818,-1.591535 1.8711,-2.47461 v -0.002 c 0.28506,-0.879858 0.41992,-2.342032 0.41992,-4.414062 V 49.109375 h 10.00195 v 34.53125 h -9.24414 v -5.794922 l -0.25586,-0.04883 c -1.77526,4.392631 -5.12845,6.566406 -10.14258,6.566406 -2.60117,0 -4.58387,-0.481645 -5.95312,-1.423828 h -0.002 c -1.37837,-0.971983 -2.36876,-2.279202 -2.98047,-3.931641 -0.58856,-1.675141 -0.88868,-4.108759 -0.88868,-7.292968 z"
           style="color:#000000;font-style:normal;font-variant:normal;font-weight:normal;font-stretch:normal;font-size:70.5556px;line-height:1.25;font-family:'Franklin Gothic Demi';-inkscape-font-specification:'Franklin Gothic Demi';font-variant-ligatures:normal;font-variant-position:normal;font-variant-caps:normal;font-variant-numeric:normal;font-variant-alternates:normal;font-variant-east-asian:normal;font-feature-settings:normal;font-variation-settings:normal;text-indent:0;text-align:start;text-decoration:none;text-decoration-line:none;text-decoration-style:solid;text-decoration-color:#000000;letter-spacing:0px;word-spacing:0px;text-transform:none;writing-mode:lr-tb;direction:ltr;text-orientation:mixed;dominant-baseline:auto;baseline-shift:baseline;text-anchor:start;white-space:normal;shape-padding:0;shape-margin:0;inline-size:0;clip-rule:nonzero;display:inline;overflow:visible;visibility:visible;isolation:auto;mix-blend-mode:normal;color-interpolation:sRGB;color-interpolation-filters:linearRGB;solid-color:#000000;solid-opacity:1;vector-effect:none;fill-opacity:1;fill-rule:nonzero;stroke:none;stroke-width:0.264583;stroke-linecap:butt;stroke-linejoin:miter;stroke-miterlimit:4;stroke-dasharray:none;stroke-dashoffset:0;stroke-opacity:1;color-rendering:auto;image-rendering:auto;shape-rendering:auto;text-rendering:auto;enable-background:accumulate;stop-color:#000000;stop-opacity:1" />
      </g>
      <g
         style="opacity:1"
         id="g2649">
        <path
           id="path2651"
           d="m 204.94615,36.746365 v 16.605371 c 1.83738,-3.399163 4.70829,-5.098745 8.61274,-5.098745 3.99631,0 7.15432,1.619196 9.47402,4.857588 2.3197,3.215425 3.47955,7.636634 3.47955,13.263627 0,5.420287 -1.1943,9.795561 -3.5829,13.125822 -2.38861,3.330261 -5.83371,4.995392 -10.3353,4.995392 -2.34267,0 -4.24895,-0.401928 -5.71886,-1.205784 -1.46991,-0.803856 -2.9513,-2.423052 -4.44418,-4.857588 -0.64308,0.666053 -1.401,2.44602 -2.27376,5.339902 h -5.47771 V 36.746365 Z m 0,33.245194 c 0,2.434535 0.50528,4.271921 1.51584,5.512156 1.03353,1.240235 2.26228,1.860353 3.68625,1.860353 1.69959,0 3.10059,-0.746438 4.20302,-2.239314 1.10243,-1.515843 1.65365,-4.444176 1.65365,-8.784999 0,-4.937973 -0.57418,-8.038561 -1.72255,-9.301764 -1.1254,-1.263203 -2.41157,-1.894804 -3.85851,-1.894804 -1.67661,0 -3.00872,0.711987 -3.99631,2.135961 -0.98759,1.423973 -1.48139,3.445097 -1.48139,6.063372 z"
           style="color:#000000;font-style:normal;font-variant:normal;font-weight:normal;font-stretch:normal;font-size:70.5556px;line-height:1.25;font-family:'Franklin Gothic Demi';-inkscape-font-specification:'Franklin Gothic Demi';font-variant-ligatures:normal;font-variant-position:normal;font-variant-caps:normal;font-variant-numeric:normal;font-variant-alternates:normal;font-variant-east-asian:normal;font-feature-settings:normal;font-variation-settings:normal;text-indent:0;text-align:start;text-decoration:none;text-decoration-line:none;text-decoration-style:solid;text-decoration-color:#000000;letter-spacing:0px;word-spacing:0px;text-transform:none;writing-mode:lr-tb;direction:ltr;text-orientation:mixed;dominant-baseline:auto;baseline-shift:baseline;text-anchor:start;white-space:normal;shape-padding:0;shape-margin:0;inline-size:0;clip-rule:nonzero;display:inline;overflow:visible;visibility:visible;isolation:auto;mix-blend-mode:normal;color-interpolation:sRGB;color-interpolation-filters:linearRGB;solid-color:#000000;solid-opacity:1;vector-effect:none;fill:#000000;fill-opacity:1;fill-rule:nonzero;stroke:none;stroke-width:0.264583;stroke-linecap:butt;stroke-linejoin:miter;stroke-miterlimit:4;stroke-dasharray:none;stroke-dashoffset:0;stroke-opacity:1;color-rendering:auto;image-rendering:auto;shape-rendering:auto;text-rendering:auto;enable-background:accumulate;stop-color:#000000;stop-opacity:1" />
        <path
           id="path2653"
           d="m 194.54688,36.613281 v 47.291016 h 5.70898 l 0.0273,-0.09375 c 0.84364,-2.797316 1.58457,-4.451282 2.17383,-5.121094 1.45306,2.322251 2.89893,3.920253 4.35547,4.716797 1.49586,0.818052 3.42345,1.220703 5.78125,1.220703 4.53422,0 8.03181,-1.688537 10.44336,-5.050781 2.40841,-3.357882 3.60742,-7.761452 3.60742,-13.201172 0,-5.645172 -1.16278,-10.096677 -3.50391,-13.341797 -2.34064,-3.267629 -5.54998,-4.912109 -9.58203,-4.912109 -3.78922,0 -6.6164,1.643824 -8.48047,4.816406 V 36.613281 h -0.13281 z m 0.26562,0.265625 h 10.00195 v 16.472656 l 0.24805,0.0625 c 1.81874,-3.364679 4.63004,-5.029296 8.49609,-5.029296 3.96058,0 7.06843,1.593579 9.36719,4.802734 2.29828,3.18573 3.45508,7.578686 3.45508,13.1875 0,5.400855 -1.18981,9.746189 -3.55859,13.048828 -2.36567,3.298278 -5.75955,4.939453 -10.22852,4.939453 -2.32754,0 -4.21035,-0.399793 -5.6543,-1.189453 -1.43712,-0.785926 -2.90837,-2.386974 -4.39453,-4.810547 l -0.0898,-0.146484 -0.11914,0.123047 c -0.67961,0.703887 -1.4121,2.469194 -2.27149,5.300781 h -5.25195 z m 15.61133,18.132813 c -1.71407,0 -3.0979,0.738625 -4.10547,2.191406 -1.00923,1.455174 -1.50391,3.503764 -1.50391,6.138672 v 6.650391 c 0,2.452839 0.50759,4.322606 1.54493,5.595703 h 0.002 c 1.05265,1.26319 2.32473,1.908203 3.78711,1.908203 1.73832,0 3.18687,-0.773959 4.30859,-2.292969 h 0.002 c 1.13777,-1.564421 1.67774,-4.511259 1.67774,-8.863281 0,-2.474114 -0.14226,-4.490077 -0.43164,-6.052735 -0.28938,-1.562658 -0.72118,-2.674546 -1.32422,-3.33789 -1.14413,-1.284229 -2.47159,-1.9375 -3.95703,-1.9375 z m 0,0.263672 c 1.40844,0 2.6531,0.609385 3.75976,1.851562 0.54533,0.599858 0.97497,1.669101 1.25977,3.207031 0.2848,1.53793 0.42969,3.542001 0.42969,6.00586 0,4.329624 -0.56181,7.239767 -1.62891,8.707031 -1.08313,1.466742 -2.43485,2.185547 -4.0957,2.185547 -1.38557,0 -2.56959,-0.595219 -3.58399,-1.8125 -0.98378,-1.207374 -1.48633,-3.011504 -1.48633,-5.427734 v -6.650391 c 0,-2.601642 0.49304,-4.593556 1.45899,-5.986328 0.96761,-1.395167 2.24756,-2.080078 3.88672,-2.080078 z"
           style="color:#000000;font-style:normal;font-variant:normal;font-weight:normal;font-stretch:normal;font-size:70.5556px;line-height:1.25;font-family:'Franklin Gothic Demi';-inkscape-font-specification:'Franklin Gothic Demi';font-variant-ligatures:normal;font-variant-position:normal;font-variant-caps:normal;font-variant-numeric:normal;font-variant-alternates:normal;font-variant-east-asian:normal;font-feature-settings:normal;font-variation-settings:normal;text-indent:0;text-align:start;text-decoration:none;text-decoration-line:none;text-decoration-style:solid;text-decoration-color:#000000;letter-spacing:0px;word-spacing:0px;text-transform:none;writing-mode:lr-tb;direction:ltr;text-orientation:mixed;dominant-baseline:auto;baseline-shift:baseline;text-anchor:start;white-space:normal;shape-padding:0;shape-margin:0;inline-size:0;clip-rule:nonzero;display:inline;overflow:visible;visibility:visible;isolation:auto;mix-blend-mode:normal;color-interpolation:sRGB;color-interpolation-filters:linearRGB;solid-color:#000000;solid-opacity:1;vector-effect:none;fill-opacity:1;fill-rule:nonzero;stroke:none;stroke-width:0.264583;stroke-linecap:butt;stroke-linejoin:miter;stroke-miterlimit:4;stroke-dasharray:none;stroke-dashoffset:0;stroke-opacity:1;color-rendering:auto;image-rendering:auto;shape-rendering:auto;text-rendering:auto;enable-background:accumulate;stop-color:#000000;stop-opacity:1" />
      </g>
      <g
         style="opacity:1"
         id="g2655">
        <path
           id="path2657"
           d="m 264.37409,68.096755 h -22.39314 c -0.023,0.620117 -0.0345,1.159849 -0.0345,1.619196 0,2.48047 0.65457,4.352306 1.96371,5.615509 1.3321,1.263203 2.91684,1.894804 4.75423,1.894804 3.42213,0 5.47771,-1.825902 6.16673,-5.477706 l 9.30176,0.68902 c -2.59531,8.038561 -7.86631,12.057842 -15.813,12.057842 -3.46807,0 -6.41937,-0.689019 -8.8539,-2.067058 -2.41157,-1.401007 -4.40972,-3.433614 -5.99447,-6.097823 -1.56178,-2.664209 -2.34267,-5.856667 -2.34267,-9.577372 0,-5.535124 1.57326,-10.002268 4.71979,-13.401431 3.16949,-3.399163 7.2347,-5.098745 12.19564,-5.098745 4.47863,0 8.31417,1.584745 11.50663,4.754235 3.21543,3.146523 4.82314,8.176366 4.82314,15.089529 z M 241.9465,62.136736 h 12.3679 c -0.32154,-4.777203 -2.28525,-7.165804 -5.89112,-7.165804 -3.85851,0 -6.01743,2.388601 -6.47678,7.165804 z"
           style="color:#000000;font-style:normal;font-variant:normal;font-weight:normal;font-stretch:normal;font-size:70.5556px;line-height:1.25;font-family:'Franklin Gothic Demi';-inkscape-font-specification:'Franklin Gothic Demi';font-variant-ligatures:normal;font-variant-position:normal;font-variant-caps:normal;font-variant-numeric:normal;font-variant-alternates:normal;font-variant-east-asian:normal;font-feature-settings:normal;font-variation-settings:normal;text-indent:0;text-align:start;text-decoration:none;text-decoration-line:none;text-decoration-style:solid;text-decoration-color:#000000;letter-spacing:0px;word-spacing:0px;text-transform:none;writing-mode:lr-tb;direction:ltr;text-orientation:mixed;dominant-baseline:auto;baseline-shift:baseline;text-anchor:start;white-space:normal;shape-padding:0;shape-margin:0;inline-size:0;clip-rule:nonzero;display:inline;overflow:visible;visibility:visible;isolation:auto;mix-blend-mode:normal;color-interpolation:sRGB;color-interpolation-filters:linearRGB;solid-color:#000000;solid-opacity:1;vector-effect:none;fill:#000000;fill-opacity:1;fill-rule:nonzero;stroke:none;stroke-width:0.264583;stroke-linecap:butt;stroke-linejoin:miter;stroke-miterlimit:4;stroke-dasharray:none;stroke-dashoffset:0;stroke-opacity:1;color-rendering:auto;image-rendering:auto;shape-rendering:auto;text-rendering:auto;enable-background:accumulate;stop-color:#000000;stop-opacity:1" />
        <path
           id="path2659"
           d="m 248.04492,48.121094 c -4.99115,0 -9.1,1.716282 -12.29297,5.140625 -3.17084,3.425433 -4.75586,7.931996 -4.75586,13.492187 0,3.739216 0.78596,6.95519 2.36133,9.642578 v 0.002 c 1.59461,2.680791 3.61079,4.73155 6.04297,6.144531 2.45797,1.391304 5.43433,2.083984 8.91992,2.083984 3.99565,0 7.3312,-1.011938 9.99219,-3.041015 2.66099,-2.029078 4.64159,-5.069357 5.94531,-9.107422 l 0.0527,-0.160157 -9.58789,-0.710937 -0.0215,0.117187 c -0.34081,1.806297 -1.01509,3.144459 -2.01562,4.033203 -1.00054,0.888745 -2.33395,1.335938 -4.02149,1.335938 -1.80707,0 -3.35204,-0.615116 -4.66211,-1.857422 -1.278,-1.233159 -1.92382,-3.062335 -1.92383,-5.519531 0,-0.421214 0.0137,-0.929695 0.0332,-1.488281 h 22.13086 0.13281 V 67.96489 l 0.13086,0.132812 c 0,-6.932305 -1.61257,-12.00308 -4.86133,-15.183594 l -0.002,-0.002 c -3.21402,-3.18995 -7.08877,-4.791015 -11.59766,-4.791015 z m 0,0.263672 c 4.44742,0 8.2416,1.569099 11.41211,4.716796 h 0.002 c 3.15888,3.091188 4.75345,8.044213 4.7754,14.863282 h -22.38086 l -0.004,0.126953 c -0.0231,0.621326 -0.0352,1.163445 -0.0352,1.625 0,2.503743 0.66363,4.415738 2.00391,5.708984 v 0.002 c 1.35414,1.2841 2.978,1.931641 4.8457,1.931641 1.7346,0 3.14223,-0.467139 4.19727,-1.404297 1.03005,-0.914958 1.70638,-2.285233 2.0625,-4.066406 l 9.00976,0.667969 c -1.29174,3.908988 -3.21108,6.858539 -5.78125,8.818359 -2.61001,1.990203 -5.88098,2.988281 -9.83203,2.988281 -3.44953,0 -6.37641,-0.684856 -8.78711,-2.048828 l -0.002,-0.002 c -2.3899,-1.388987 -4.37095,-3.402075 -5.94531,-6.048828 -1.54819,-2.64103 -2.32422,-5.80757 -2.32422,-9.509766 0,-5.510056 1.56138,-9.939606 4.68359,-13.3125 3.14601,-3.373984 7.16889,-5.05664 12.09961,-5.05664 z m 0.37891,6.453125 c -1.95655,0 -3.50558,0.612551 -4.61133,1.835937 -1.10575,1.223386 -1.76668,3.045006 -1.99805,5.451172 l -0.0137,0.144531 h 0.14649 12.50781 l -0.008,-0.142578 c -0.16189,-2.405131 -0.73707,-4.224234 -1.74415,-5.449219 -1.00707,-1.224985 -2.44714,-1.839843 -4.27929,-1.839843 z m 0,0.265625 c 1.77372,0 3.11759,0.578571 4.07422,1.742187 0.93464,1.136874 1.48389,2.867972 1.6582,5.158203 h -12.04687 c 0.24184,-2.287955 0.86983,-4.014319 1.89843,-5.152344 1.05318,-1.165215 2.51406,-1.748046 4.41602,-1.748046 z"
           style="color:#000000;font-style:normal;font-variant:normal;font-weight:normal;font-stretch:normal;font-size:70.5556px;line-height:1.25;font-family:'Franklin Gothic Demi';-inkscape-font-specification:'Franklin Gothic Demi';font-variant-ligatures:normal;font-variant-position:normal;font-variant-caps:normal;font-variant-numeric:normal;font-variant-alternates:normal;font-variant-east-asian:normal;font-feature-settings:normal;font-variation-settings:normal;text-indent:0;text-align:start;text-decoration:none;text-decoration-line:none;text-decoration-style:solid;text-decoration-color:#000000;letter-spacing:0px;word-spacing:0px;text-transform:none;writing-mode:lr-tb;direction:ltr;text-orientation:mixed;dominant-baseline:auto;baseline-shift:baseline;text-anchor:start;white-space:normal;shape-padding:0;shape-margin:0;inline-size:0;clip-rule:nonzero;display:inline;overflow:visible;visibility:visible;isolation:auto;mix-blend-mode:normal;color-interpolation:sRGB;color-interpolation-filters:linearRGB;solid-color:#000000;solid-opacity:1;vector-effect:none;fill-opacity:1;fill-rule:nonzero;stroke:none;stroke-width:0.264583;stroke-linecap:butt;stroke-linejoin:miter;stroke-miterlimit:4;stroke-dasharray:none;stroke-dashoffset:0;stroke-opacity:1;color-rendering:auto;image-rendering:auto;shape-rendering:auto;text-rendering:auto;enable-background:accumulate;stop-color:#000000;stop-opacity:1" />
      </g>
    </g>
  </g>
</svg>
